<svg width="30" height="28" viewBox="0 0 30 28" fill="none" xmlns="http://www.w3.org/2000/svg">
<path d="M13.7497 27.4991C6.16864 27.4991 0 21.3307 0 13.7497C0 6.16864 6.16864 0 13.7497 0C16.3859 0 18.9506 0.751168 21.1668 2.17363C21.6019 2.45377 21.7294 3.03374 21.4493 3.46997C21.1682 3.90621 20.5894 4.03232 20.1531 3.75241C18.2407 2.52358 16.0258 1.87494 13.7497 1.87494C7.20224 1.87494 1.87494 7.20224 1.87494 13.7497C1.87494 20.2969 7.20224 25.6242 13.7497 25.6242C20.2969 25.6242 25.6242 20.2969 25.6242 13.7497C25.6242 13.3583 25.6054 12.9708 25.5692 12.5897C25.5193 12.0734 25.8968 11.6159 26.4117 11.566C26.9292 11.5184 27.3854 11.8935 27.4355 12.4085C27.4778 12.8497 27.4991 13.2972 27.4991 13.7497C27.4991 21.3307 21.3307 27.4991 13.7497 27.4991Z" fill="#4CAF50"/>
<path d="M15.3119 16.8746C15.0721 16.8746 14.832 16.7833 14.6496 16.5997L9.02474 10.9749C8.65854 10.6084 8.65854 10.0147 9.02474 9.64853C9.39094 9.28233 9.98464 9.28233 10.3508 9.64853L15.3133 14.611L28.399 1.52507C28.7654 1.15887 29.3591 1.15887 29.7253 1.52507C30.0915 1.89127 30.0915 2.48497 29.7253 2.85117L15.9757 16.6008C15.7919 16.7833 15.552 16.8746 15.3119 16.8746Z" fill="#4CAF50"/>
</svg>
