<svg width="22" height="22" viewBox="0 0 22 22" fill="none" xmlns="http://www.w3.org/2000/svg">
<path d="M3.57536 3.57535L3.57535 3.57536C1.59288 5.55791 0.5 8.1963 0.5 11C0.5 13.8037 1.59287 16.4421 3.57535 18.4246L3.92891 18.0711L3.57536 18.4247C5.55791 20.4072 8.1963 21.5 11 21.5C13.8037 21.5 16.4421 20.4072 18.4246 18.4246C20.4072 16.4421 21.5 13.8037 21.5 11C21.5 8.1963 20.4072 5.55791 18.4246 3.57539C16.4421 1.59287 13.8037 0.5 11 0.5C8.1963 0.5 5.55791 1.59283 3.57536 3.57535ZM14.2857 9.53447L14.2857 9.53448C14.5287 10.0826 15.1701 10.3305 15.7186 10.0872C16.2669 9.8442 16.5143 9.20274 16.2713 8.65447C15.3431 6.5601 13.2637 5.20703 10.9732 5.20703C7.77855 5.20703 5.18027 7.8053 5.18027 11C5.18027 14.1947 7.77855 16.793 10.9732 16.793C13.2767 16.793 15.3612 15.4288 16.2837 13.3177C16.5238 12.7682 16.273 12.128 15.7234 11.8878C15.1737 11.6475 14.5336 11.8986 14.2935 12.4481C13.7166 13.7682 12.4134 14.6211 10.9732 14.6211C8.97696 14.6211 7.35211 12.9962 7.35211 11C7.35211 9.00376 8.97696 7.37891 10.9732 7.37891C12.4049 7.37891 13.7054 8.22512 14.2857 9.53447ZM11 19.3281C6.40829 19.3281 2.67188 15.5917 2.67188 11C2.67188 6.40829 6.40829 2.67188 11 2.67188C15.5917 2.67188 19.3281 6.40829 19.3281 11C19.3281 15.5917 15.5917 19.3281 11 19.3281Z" fill="#616161" stroke="#4B4A44"/>
</svg>
